<svg xmlns="http://www.w3.org/2000/svg" width="144.513" height="225.751" viewBox="0 0 144.513 225.751">
  <path id="Path_1" data-name="Path 1" d="M1205.582,761.712l-6.2-10.1,12.544-13.632,12.634-3.937h24.971l10.375,1.625,11.542,2.313,11.115,1.7,17,1.536,10.148-3.234,5.182-3.937-2.619-7.243-6.979-2.87h-42.99l-12.776-1.885-5.111,1.885h-6.354l-3.513-1.885-1.43-3.854-8.564,2.427h-11l-5.331-2.427-2.645-4.935,2.645-3.755,8.5-2.766V671.3l-4.8-23.749-10.52-22.91-2.025-16.284,3.53-13.9-7.194-14.118V560.174l-3.415-15.639,3.415-5.736,16.208,11.447,7.706-1.546,7.576,1.546,17.214-11.447,2.845,5.736-2.845,8.449-1.608,9.645v2.316l1.608,7.318v6.392l10.656,15.806,16.371,4.716,12.8,7.065,8.251,10.583,7.069,11.816,8,22.046,2.148,10.835V692.3l-2.148,7.445,2.148,5.378,8,4.376,12.833,8.69,3.55,5.74,1.668,10.113-3.212,7.172-6.572,7.8-11.089,5.872-12.945,2.1h-14.456l-13.848-2.1-11.339-3.28-12.776-2.592h-22.324l-10.477,5.872v6.819l-4.8,1.587Z" transform="translate(-1191.771 -538.069)" fill="#020202" stroke="#707070" stroke-width="1"/>
</svg>
